:SAMPLES-PER-SECOND 30
:FULLY-SPECIFIED
:DEGREES
583
root  45.0936 32.9884 -67.1883 -168.218 70.1836 -170.386
RightUpLeg  -11.5422 -8.27158 5.99306
RightLeg  16.5171 -5.96186 -1.35441
RightFoot  1.21537 0.00733939 -0.0704314
RightToes  -24.0422 -0.10512 -0.208501
Spine  7.75396 1.48463 2.18933
Spine1  14.2798 4.52714 1.0012
HEad  -17.1539 -24.9447 39.1675
LeftShoulder1  0 -2.42657e-020 -4.95415e-022
LeftArm  -45.1728 -5.71943 -86.8371
LeftForeArm  67.7817 -7.41502 -1.2548
LeftHand  0.695132 -9.91447 -8.37711
RightShoulder  0 2.42657e-020 1.07489e-018
RightArm  -61.5876 10.2894 87.3409
RightForeArm  -30.8476 31.2909 6.05998
RightHand  4.64411 18.1825 28.8194
LeftUpLeg  -29.1222 -9.9124 9.28745
LeftLeg  42.8081 2.89514 2.34685
LeftFoot  -2.67315 -0.00261451 -0.112067
LeftToes  -25.4667 2.34596e-006 -6.06653e-008
584
root  45.2662 33.0586 -67.5158 -166.67 74.0389 -169.89
RightUpLeg  -12.2127 -4.91415 5.22994
RightLeg  16.2641 -5.63183 -1.25359
RightFoot  1.60822 0.00873206 -0.0812555
RightToes  -24.8607 -0.11018 -0.214709
Spine  7.73053 1.91711 1.83519
Spine1  14.3794 5.70376 0.0382278
HEad  -18.0074 -23.6216 39.0601
LeftShoulder1  0 -2.42657e-020 -4.95415e-022
LeftArm  -48.6742 -3.51701 -84.8725
LeftForeArm  68.9838 -6.17762 -1.03185
LeftHand  0.632105 -9.23915 -8.18689
RightShoulder  0 2.42657e-020 1.07489e-018
RightArm  -61.9328 9.83125 88.4486
RightForeArm  -29.1842 31.456 6.10521
RightHand  4.96374 18.1806 30.6953
LeftUpLeg  -30.1781 -13.0214 11.2942
LeftLeg  35.5992 0.933791 0.577004
LeftFoot  -2.45501 -0.000375239 -0.0175212
LeftToes  -25.4429 2.34596e-006 -6.06653e-008
585
root  45.4155 33.1134 -67.8404 -162.236 77.3875 -166.91
RightUpLeg  -13.1476 -1.96882 4.88061
RightLeg  15.4671 -5.17958 -1.07776
RightFoot  2.33075 0.0125912 -0.125036
RightToes  -25.8905 -0.116671 -0.222414
Spine  7.51528 2.17382 1.68844
Spine1  14.1196 6.42004 -0.467687
HEad  -18.5585 -22.4541 38.3722
LeftShoulder1  0 -2.42657e-020 -4.95415e-022
LeftArm  -52.2728 -1.34725 -83.0137
LeftForeArm  70.5753 -4.79292 -0.782988
LeftHand  0.537773 -8.60583 -7.51405
RightShoulder  0 2.42657e-020 1.07489e-018
RightArm  -60.8982 9.08198 88.9432
RightForeArm  -30.6741 32.2355 6.29158
RightHand  4.77859 18.2734 29.4677
LeftUpLeg  -31.6806 -16.349 14.5409
LeftLeg  28.8817 -4.10944 -1.9349
LeftFoot  -2.29516 0.00311125 0.155307
LeftToes  -26.1037 2.34596e-006 -6.06653e-008
586
root  45.6094 33.127 -68.2234 -155.294 80.3981 -161.002
RightUpLeg  -13.5664 -0.062401 4.53377
RightLeg  14.5292 -3.89511 -0.74452
RightFoot  2.98135 0.0133385 -0.113624
RightToes  -27.5133 -0.127178 -0.234317
Spine  7.42528 2.28874 1.7447
Spine1  14.082 6.7731 -0.580969
HEad  -18.2949 -21.5959 36.6627
LeftShoulder1  0 -2.42657e-020 -4.95415e-022
LeftArm  -54.4035 0.648046 -81.4968
LeftForeArm  70.945 -3.80078 -0.607336
LeftHand  0.484988 -7.57764 -7.69051
RightShoulder  0 2.42657e-020 1.07489e-018
RightArm  -60.3885 8.76011 88.7654
RightForeArm  -31.0378 32.9513 6.46879
RightHand  4.75354 17.7444 30.1609
LeftUpLeg  -32.6105 -19.5897 17.5341
LeftLeg  24.2145 -10.1311 -3.77213
LeftFoot  -1.89551 0.00481053 0.290781
LeftToes  -30.1332 2.34596e-006 -6.06653e-008
587
root  45.9114 33.1218 -68.7037 -140.205 83.4684 -146.331
RightUpLeg  -13.2502 2.46791 4.19057
RightLeg  13.5648 -2.86251 -0.497253
RightFoot  3.51157 0.0147804 -0.104598
RightToes  -28.9839 -0.136987 -0.244842
Spine  7.3877 2.48071 1.90288
Spine1  14.1401 7.16732 -0.369265
HEad  -16.579 -21.5975 34.1043
LeftShoulder1  0 -2.42657e-020 -4.95415e-022
LeftArm  -55.2024 2.52321 -80.3856
LeftForeArm  70.3596 -2.858 -0.443276
LeftHand  0.402863 -6.29374 -7.69612
RightShoulder  0 2.42657e-020 1.07489e-018
RightArm  -61.487 8.73497 88.1411
RightForeArm  -29.1648 33.2477 6.54955
RightHand  4.86751 17.2465 31.6939
LeftUpLeg  -31.692 -20.6131 18.6808
LeftLeg  21.8653 -14.8113 -4.80224
LeftFoot  -1.18089 0.00250483 0.243045
LeftToes  -33.6634 2.34596e-006 -6.06653e-008
588
root  46.2971 33.1185 -69.2733 -100.431 85.6454 -106.671
RightUpLeg  -12.6967 5.18724 3.69072
RightLeg  12.7558 -1.45706 -0.231498
RightFoot  4.0486 0.0152191 -0.0530206
RightToes  -30.8345 -0.149709 -0.257724
Spine  7.28829 2.74627 2.05826
Spine1  14.0329 7.68883 -0.14418
HEad  -12.9617 -22.1064 31.0377
LeftShoulder1  0 -2.42657e-020 -4.95415e-022
LeftArm  -58.7761 4.49297 -79.6222
LeftForeArm  72.5982 -2.34625 -0.347667
LeftHand  0.327079 -5.21251 -7.55614
RightShoulder  0 2.42657e-020 1.07489e-018
RightArm  -62.1207 8.83618 87.2424
RightForeArm  -30.2496 33.3288 6.56661
RightHand  4.50473 17.1265 29.6578
LeftUpLeg  -28.3786 -19.7874 17.634
LeftLeg  20.1583 -15.453 -4.50828
LeftFoot  -0.95136 0.00161671 0.194718
LeftToes  -31.2904 2.34596e-006 -6.06653e-008
589
root  46.6158 33.1098 -69.8988 -51.6726 84.5626 -58.3483
RightUpLeg  -13.0507 8.17936 2.89252
RightLeg  12.6686 -0.376158 -0.0584006
RightFoot  4.48015 0.0138572 0.00557435
RightToes  -32.9598 -0.164825 -0.272002
Spine  7.07663 2.70965 2.21606
Spine1  13.6683 7.64131 0.0200105
HEad  -9.0039 -22.2715 28.7863
LeftShoulder1  0 -2.42657e-020 -4.95415e-022
LeftArm  -61.6716 6.88434 -79.5978
LeftForeArm  73.8179 -4.71736 -0.761057
LeftHand  0.257739 -4.23783 -7.33952
RightShoulder  0 2.42657e-020 1.07489e-018
RightArm  -62.8261 9.32362 86.2349
RightForeArm  -30.3607 33.1944 6.53225
RightHand  4.51528 17.1344 29.7104
LeftUpLeg  -26.8807 -21.0978 17.5792
LeftLeg  19.4037 -14.2589 -3.96845
LeftFoot  0.622436 0.00117204 -0.215782
LeftToes  -31.2031 2.34596e-006 -6.06653e-008
